<svg version="1.0" xmlns="http://www.w3.org/2000/svg" viewBox="0 0 512.000000 512.000000" preserveAspectRatio="xMidYMid meet">
  <g transform="translate(0.000000,512.000000) scale(0.100000,-0.100000)"
  fill="none" stroke="#ff0000" stroke-opacity="1" stroke-width="100">

    <path d="M1145 5106 c-84 -20 -147 -56 -211 -120 -65 -66 -105 -137 -123 -224
    -16 -75 -16 -4329 0 -4404 27 -129 126 -257 240 -310 104 -49 116 -50 1024
    -46 838 3 852 4 958 26 214 45 405 125 584 244 136 90 332 283 420 413 366
    541 376 1224 25 1765 -70 108 -165 222 -248 299 l-66 60 66 99 c111 167 184
    346 221 542 24 126 25 361 2 487 -106 583 -531 1022 -1115 1155 -95 21 -113
    22 -912 24 -625 2 -827 0 -865 -10z m1660 -914 c132 -50 234 -142 296 -267
    145 -295 -9 -633 -330 -729 -47 -14 -124 -16 -563 -16 l-508 0 0 520 0 521
    523 -3 c513 -3 523 -4 582 -26z m12 -1922 c267 -35 487 -219 569 -475 55 -173
    41 -344 -43 -515 -38 -77 -61 -109 -127 -176 -67 -66 -99 -89 -176 -127 -155
    -76 -169 -77 -795 -77 l-545 0 0 690 0 690 523 0 c287 0 554 -5 594 -10z"/>
  </g>
</svg>
